<svg width="120" height="61" viewBox="0 0 120 61" fill="none" xmlns="http://www.w3.org/2000/svg">
<g clip-path="url(#clip0_1_1590)">
<mask id="mask0_1_1590" style="mask-type:luminance" maskUnits="userSpaceOnUse" x="0" y="0" width="120" height="61">
<path d="M120 0.5H0V60.5H120V0.5Z" fill="white"/>
</mask>
<g mask="url(#mask0_1_1590)">
<path d="M63.6749 24.9231L55.1483 17.0217C55.0659 16.9472 54.97 16.9259 54.8608 16.9578C54.7016 17.004 54.5598 17.0705 54.4352 17.1575C51.2316 19.4124 47.1768 19.061 44.0423 16.9525C43.9383 16.882 43.7943 16.8922 43.703 16.9764L34.9493 25.0776C34.8718 25.1473 34.8586 25.2586 34.9176 25.3438C35.1247 25.6526 35.3289 25.9561 35.5302 26.2542C38.9465 31.3311 35.3835 37.6032 29.0742 38.2235C25.5687 38.567 21.9625 36.6209 20.5218 33.5806C17.7783 27.7983 23.038 21.606 29.7356 22.5644C31.3632 22.796 32.5221 23.5628 33.799 24.2629C33.8937 24.3146 34.0136 24.3003 34.0894 24.2283C36.9824 21.5271 39.8869 18.8347 42.8029 16.1512C42.8967 16.0643 42.9065 15.9266 42.8259 15.829C38.7625 10.8906 41.6468 3.61482 48.4795 2.97855C55.9765 2.27839 60.8164 10.2065 56.0657 15.7412C55.9527 15.8715 55.9639 16.0597 56.0916 16.1778L64.8712 24.2949C64.9157 24.3365 64.9863 24.3421 65.0379 24.3082C68.4236 22.0098 71.9138 21.8873 75.5084 23.9408C75.6283 24.0096 75.7836 23.9893 75.8765 23.8929L85.3578 14.0187C85.4306 13.9442 85.4335 13.867 85.3664 13.7871C85.2092 13.5954 84.9782 13.3177 84.6734 12.9539C82.5885 10.4567 82.5166 6.49533 84.5555 3.89435C88.0725 -0.58615 95.1353 -0.69263 98.5947 3.94227C103.995 11.1861 94.448 19.841 86.626 14.828C86.4979 14.746 86.3238 14.7654 86.2205 14.8733L76.7076 24.7714C76.6551 24.8262 76.6551 24.9092 76.7076 24.9657C78.9258 27.3866 79.5584 29.9751 78.6056 32.7314C76.1727 39.7543 65.938 40.1323 62.6626 33.4742C61.3685 30.8421 61.727 28.2198 63.7381 25.6073C63.926 25.3642 63.9049 25.1361 63.6749 24.9231ZM98.8794 8.39082C98.8794 6.60872 98.1147 4.89961 96.7535 3.63948C95.3923 2.37935 93.5462 1.67141 91.6211 1.67141C89.6961 1.67141 87.8499 2.37935 86.4887 3.63948C85.1275 4.89961 84.3628 6.60872 84.3628 8.39082C84.3628 12.1019 87.6125 15.1102 91.6211 15.1102C95.6298 15.1102 98.8794 12.1019 98.8794 8.39082ZM56.6753 10.8321C56.6753 7.12398 53.4283 4.11798 49.4228 4.11798C45.4173 4.11798 42.1702 7.12398 42.1702 10.8321C42.1702 14.5402 45.4173 17.5462 49.4228 17.5462C53.4283 17.5462 56.6753 14.5402 56.6753 10.8321ZM35.5819 30.3674C35.5819 28.586 34.8175 26.8775 33.4568 25.6179C32.0962 24.3583 30.2507 23.6506 28.3265 23.6506C24.3194 23.6506 21.071 26.6578 21.071 30.3674C21.071 34.0769 24.3194 37.0841 28.3265 37.0841C32.3335 37.0841 35.5819 34.0769 35.5819 30.3674ZM77.7745 30.3647C77.7745 28.584 77.0104 26.8763 75.6503 25.6171C74.2902 24.358 72.4454 23.6506 70.5219 23.6506C66.5165 23.6506 63.2694 26.6566 63.2694 30.3647C63.2694 34.0728 66.5165 37.0788 70.5219 37.0788C72.4454 37.0788 74.2902 36.3714 75.6503 35.1123C77.0104 33.8531 77.7745 32.1454 77.7745 30.3647Z" fill="white"/>
<path d="M91.6266 13.851C94.8841 13.851 97.5247 11.4064 97.5247 8.39085C97.5247 5.37527 94.8841 2.93066 91.6266 2.93066C88.3692 2.93066 85.7285 5.37527 85.7285 8.39085C85.7285 11.4064 88.3692 13.851 91.6266 13.851Z" fill="white"/>
<path d="M49.3935 16.2639C52.643 16.2639 55.2772 13.8252 55.2772 10.817C55.2772 7.80877 52.643 5.37012 49.3935 5.37012C46.144 5.37012 43.5098 7.80877 43.5098 10.817C43.5098 13.8252 46.144 16.2639 49.3935 16.2639Z" fill="white"/>
<path d="M28.326 35.8218C31.5802 35.8218 34.2183 33.3796 34.2183 30.367C34.2183 27.3543 31.5802 24.9121 28.326 24.9121C25.0717 24.9121 22.4336 27.3543 22.4336 30.367C22.4336 33.3796 25.0717 35.8218 28.326 35.8218Z" fill="white"/>
<path d="M70.5213 35.8218C73.7755 35.8218 76.4136 33.3796 76.4136 30.367C76.4136 27.3543 73.7755 24.9121 70.5213 24.9121C67.267 24.9121 64.6289 27.3543 64.6289 30.367C64.6289 33.3796 67.267 35.8218 70.5213 35.8218Z" fill="white"/>
<path d="M13.0463 48.0502C12.847 48.1017 12.66 48.0937 12.4856 48.0263C12.4108 47.9979 12.3725 47.9464 12.3705 47.8719L12.3332 46.5993C12.3301 46.4888 12.3753 46.3817 12.4587 46.3025C12.5421 46.2233 12.6565 46.1787 12.776 46.1787C14.7948 46.1769 16.0285 47.0697 16.4771 48.8569C16.536 49.0884 16.3878 49.3218 16.1406 49.3867C13.3368 50.1268 14.8983 48.5481 13.3253 48.0582C13.2355 48.0287 13.1379 48.0259 13.0463 48.0502Z" fill="white"/>
<path d="M39.9014 49.3791C39.8957 48.4553 39.0617 48.1359 38.1817 48.2876C38.1289 48.2961 38.0747 48.2831 38.0329 48.2521C37.9911 48.221 37.9657 48.1748 37.9632 48.1252L37.8942 46.7489C37.8863 46.5851 37.9544 46.4259 38.0813 46.3115C38.2082 46.1971 38.3818 46.1383 38.5585 46.1499C41.3939 46.3415 42.2911 47.9069 42.2854 50.3295C42.2796 52.7007 42.2796 55.0487 42.2854 57.3737C42.2855 57.5637 42.1224 57.7194 41.9173 57.7251L40.2034 57.7651C40.1208 57.7673 40.0408 57.7381 39.9822 57.6842C39.9235 57.6304 39.8912 57.5567 39.8928 57.4802C39.9196 54.8074 39.9225 52.107 39.9014 49.3791Z" fill="white"/>
<path d="M108.404 49.675C108.398 48.3599 107.679 48.3146 106.578 48.2534C106.47 48.2492 106.385 48.169 106.382 48.0697L106.319 46.5788C106.313 46.4512 106.367 46.3276 106.467 46.2391C106.567 46.1506 106.704 46.1057 106.842 46.1156C109.39 46.3108 110.695 47.5683 110.756 49.888C110.823 52.433 110.807 54.9346 110.707 57.3927C110.698 57.6038 110.508 57.7687 110.281 57.7628L108.504 57.7095C108.43 57.7078 108.392 57.6723 108.392 57.6031C108.413 56.0998 108.417 53.4571 108.404 49.675Z" fill="white"/>
<path d="M78.7003 50.9336C78.1798 49.9726 79.3243 48.0425 76.9519 48.2635C76.8268 48.2754 76.7025 48.2359 76.6117 48.1554C76.5209 48.0749 76.4728 47.9616 76.4802 47.8455L76.5665 46.5596C76.5786 46.3808 76.7302 46.237 76.9231 46.2215C79.98 45.9713 81.3891 48.4578 80.8916 50.9416C80.8743 51.0251 80.8207 51.0668 80.7306 51.0668H78.9332C78.8362 51.067 78.7464 51.0157 78.7003 50.9336Z" fill="white"/>
<path d="M117.767 54.8448L117.77 46.4908C117.77 46.4003 117.82 46.3541 117.919 46.3524L119.82 46.3311C119.867 46.3304 119.913 46.3474 119.946 46.3785C119.98 46.4095 119.998 46.4519 119.998 46.4961V54.7623C119.999 54.9631 119.824 55.1268 119.607 55.1297L117.899 55.1536C117.617 55.1572 117.526 55.2814 117.626 55.5263C117.784 55.923 119.294 55.8032 119.625 55.7659C119.719 55.7553 119.814 55.7827 119.886 55.8412C119.957 55.8997 119.998 55.9838 119.998 56.0721V60.0654C119.999 60.1457 119.938 60.2156 119.852 60.2331C119.125 60.3733 118.398 60.3751 117.669 60.2385C117.577 60.2225 117.517 60.1728 117.488 60.0894C116.75 58.0075 116.026 55.9266 115.317 53.8465C114.765 52.2225 115.041 50.0688 115.018 48.2638C115.02 48.1945 115.075 48.1366 115.15 48.1262C115.224 48.1157 115.295 48.1557 115.32 48.2212L117.456 54.8874C117.478 54.9587 117.553 55.0041 117.632 54.9933C117.711 54.9825 117.769 54.9188 117.767 54.8448Z" fill="white"/>
<path d="M4.8762 54.7709L4.0825 49.6834C4.059 49.5329 3.91591 49.4234 3.75179 49.4305L2.31968 49.4917C2.22326 49.4961 2.12986 49.4599 2.06562 49.3932C2.00138 49.3265 1.9732 49.2365 1.98898 49.1483L2.44046 46.5952C2.46572 46.453 2.59818 46.3483 2.75392 46.3477H5.3737C5.52944 46.3483 5.6619 46.453 5.68716 46.5952L7.49311 56.717C7.50826 56.8023 7.48226 56.8895 7.42195 56.9556C7.36164 57.0217 7.27309 57.06 7.17966 57.0604L3.10763 57.079C2.95097 57.0799 2.81817 57.1859 2.79418 57.3293L2.33981 60.082C2.31535 60.2283 2.17766 60.3353 2.01773 60.3322L0.312428 60.2976C0.219407 60.2958 0.131877 60.2565 0.0727488 60.19C0.0136203 60.1235 -0.0112213 60.0364 0.0047259 59.9515L1.75317 50.4049C1.77926 50.2656 1.90823 50.1629 2.06087 50.1599L3.56775 50.1307C3.66143 50.1283 3.75151 50.1642 3.81408 50.2288C3.87665 50.2933 3.9054 50.3801 3.8927 50.4661L3.24279 54.7256C3.2306 54.8075 3.256 54.8904 3.31283 54.9541C3.36965 55.0178 3.45272 55.0566 3.54186 55.0611L4.54262 55.109C4.63835 55.1139 4.73142 55.0788 4.79609 55.0132C4.86076 54.9477 4.89017 54.8587 4.8762 54.7709Z" fill="white"/>
<path d="M24.6624 46.3428H18.2668C18.0714 46.3428 17.9131 46.4894 17.9131 46.6702V48.0918C17.9131 48.2727 18.0714 48.4193 18.2668 48.4193H24.6624C24.8578 48.4193 25.0161 48.2727 25.0161 48.0918V46.6702C25.0161 46.4894 24.8578 46.3428 24.6624 46.3428Z" fill="white"/>
<path d="M28.6979 48.6212L28.6921 52.721C28.6923 52.8159 28.7636 52.8985 28.8647 52.9207C30.5498 53.2809 31.4049 52.7343 31.4298 51.2807C31.4557 49.8032 31.3062 48.2964 31.4471 46.8375C31.4566 46.7393 31.522 46.6531 31.6185 46.6115C31.7151 46.5698 31.8284 46.5788 31.9158 46.6352C33.0862 47.4019 33.4284 47.9796 33.5895 49.3586C33.7879 51.0864 33.8167 52.7929 32.5025 54.0468C32.42 54.1249 32.3941 54.2163 32.4248 54.321L34.0438 60.1725C34.0726 60.2701 34.0314 60.3189 33.9202 60.3189H31.9129C31.7289 60.3189 31.6148 60.2364 31.5707 60.0713L30.3687 55.4471C30.292 55.1507 30.0888 55.0043 29.759 55.0078L26.6647 55.0398C26.6155 55.0405 26.5681 55.0156 26.533 54.9706C26.4979 54.9256 26.478 54.8642 26.4778 54.8002L26.4404 46.526C26.4404 46.4071 26.5047 46.3477 26.6331 46.3477H30.5009C30.5904 46.3477 30.6678 46.404 30.6879 46.4834C30.7876 46.8757 30.7847 47.2741 30.6792 47.6788C30.6569 47.7683 30.6692 47.8616 30.7138 47.9423C31.1422 48.717 29.1954 48.4748 28.8445 48.4827C28.7487 48.4845 28.6998 48.5307 28.6979 48.6212Z" fill="white"/>
<path d="M51.0462 54.7017L51.0778 57.284C51.0795 57.4706 50.9198 57.6243 50.7183 57.6301L49.2057 57.6754C49.1053 57.6782 49.008 57.6433 48.9359 57.5786C48.8639 57.5139 48.8232 57.4249 48.8232 57.3319V46.6911C48.8232 46.6 48.8623 46.5126 48.9319 46.4482C49.0015 46.3838 49.0958 46.3477 49.1942 46.3477H50.7672C50.8666 46.3476 50.9619 46.3846 51.0316 46.4501C51.1013 46.5157 51.1397 46.6044 51.1382 46.6964L51.0749 51.917C51.0734 52.0085 51.1114 52.0969 51.1805 52.1623C51.2496 52.2278 51.3441 52.2651 51.443 52.2658L53.8385 52.2817C54.0411 52.2832 54.205 52.4349 54.2066 52.6225L54.221 54.0787C54.2218 54.1721 54.1815 54.2618 54.1093 54.3271C54.0372 54.3924 53.9394 54.4277 53.8385 54.4248L51.4286 54.3529C51.3273 54.35 51.229 54.3856 51.1568 54.4515C51.0845 54.5174 51.0446 54.6078 51.0462 54.7017Z" fill="white"/>
<path d="M55.0272 46.3287L52.0435 46.3581C51.8625 46.3599 51.7174 46.4971 51.7194 46.6645L51.7364 48.1164C51.7383 48.2838 51.8866 48.4181 52.0676 48.4163L55.0513 48.3869C55.2323 48.3851 55.3774 48.2479 55.3754 48.0805L55.3584 46.6286C55.3565 46.4612 55.2082 46.3269 55.0272 46.3287Z" fill="white"/>
<path d="M58.6515 46.3389H57.0411C56.8712 46.3389 56.7334 46.4664 56.7334 46.6237V57.3631C56.7334 57.5204 56.8712 57.6479 57.0411 57.6479H58.6515C58.8214 57.6479 58.9592 57.5204 58.9592 57.3631V46.6237C58.9592 46.4664 58.8214 46.3389 58.6515 46.3389Z" fill="white"/>
<path d="M59.7702 46.3847C61.7228 46.0945 63.4913 47.3457 63.8163 49.1028C63.8374 49.2128 63.8499 49.9165 63.8537 51.2139C63.8575 52.9 63.8575 54.5869 63.8537 56.2748C63.8393 60.6088 60.745 60.3373 57.0842 60.316C56.9912 60.316 56.902 60.2815 56.8362 60.2201C56.7704 60.1587 56.7334 60.0754 56.7334 59.9885V58.5217C56.7334 58.4485 56.7653 58.3783 56.822 58.3268C56.8787 58.2753 56.9555 58.2467 57.0354 58.2475C58.2547 58.2554 61.671 58.7826 61.6825 57.0415C61.6959 54.8034 61.6988 52.5654 61.6911 50.3274C61.6883 49.1773 61.4295 48.3201 59.983 48.4425C59.8853 48.4508 59.7885 48.4205 59.7162 48.3592C59.6439 48.2979 59.603 48.2112 59.6034 48.1204L59.6177 46.547C59.6194 46.4667 59.6833 46.3986 59.7702 46.3847Z" fill="white"/>
<path d="M67.2058 60.0075C66.5789 60.1379 65.6961 58.9639 65.489 58.5406C65.305 58.1679 65.2081 57.6132 65.1986 56.8767C65.1487 53.4265 65.1305 49.9842 65.1439 46.55C65.1455 46.4378 65.2442 46.3476 65.3654 46.3477H67.0074C67.2059 46.3477 67.3669 46.4966 67.3669 46.6804V59.8184C67.3669 59.9091 67.3 59.9876 67.2058 60.0075Z" fill="white"/>
<path d="M72.1592 46.3525H70.2209C70.1129 46.3525 70.0254 46.4336 70.0254 46.5336V57.5604C70.0254 57.6604 70.1129 57.7415 70.2209 57.7415H72.1592C72.2672 57.7415 72.3547 57.6604 72.3547 57.5604V46.5336C72.3547 46.4336 72.2672 46.3525 72.1592 46.3525Z" fill="white"/>
<path d="M85.692 55.0584L86.779 55.0664C86.8619 55.0673 86.941 55.0344 86.9953 54.9764C87.0496 54.9185 87.0736 54.8414 87.0609 54.7656L86.2327 49.6728C86.2111 49.5434 86.0893 49.4489 85.948 49.4518L84.4612 49.4811C84.3779 49.4828 84.298 49.4502 84.243 49.3922C84.1881 49.3341 84.1637 49.2565 84.1765 49.1803L84.6395 46.566C84.6619 46.4407 84.7784 46.3485 84.9156 46.3477H87.5699C87.7081 46.3472 87.8262 46.4397 87.8488 46.566L89.7094 56.8075C89.723 56.8837 89.6995 56.9616 89.6451 57.0202C89.5907 57.0788 89.511 57.112 89.4276 57.111L85.2607 57.0577C85.1204 57.0562 85.0003 57.1504 84.9788 57.2787L84.5015 60.098C84.4802 60.2253 84.3617 60.3191 84.2225 60.3189L82.4425 60.3109C82.3594 60.3105 82.2808 60.2763 82.2276 60.2172C82.1744 60.1582 82.152 60.0805 82.1664 60.0048L83.9493 50.3569C83.9733 50.2307 84.0928 50.1394 84.2312 50.1413L85.7639 50.1599C85.8446 50.1608 85.921 50.1937 85.9738 50.2502C86.0266 50.3067 86.0507 50.3814 86.04 50.4554L85.416 54.7629C85.4052 54.8369 85.4293 54.9117 85.4821 54.9682C85.5349 55.0247 85.6113 55.0575 85.692 55.0584Z" fill="white"/>
<path d="M98.261 46.3477H91.7906C91.6064 46.3477 91.457 46.4859 91.457 46.6565V48.0994C91.457 48.2699 91.6064 48.4082 91.7906 48.4082H98.261C98.4452 48.4082 98.5946 48.2699 98.5946 48.0994V46.6565C98.5946 46.4859 98.4452 46.3477 98.261 46.3477Z" fill="white"/>
<path d="M101.955 46.3477H100.155C100.036 46.3477 99.9395 46.437 99.9395 46.5473V48.0115C99.9395 48.1218 100.036 48.2112 100.155 48.2112H101.955C102.074 48.2112 102.171 48.1218 102.171 48.0115V46.5473C102.171 46.437 102.074 46.3477 101.955 46.3477Z" fill="white"/>
<path d="M114.112 46.3525H112.438C112.279 46.3525 112.15 46.4717 112.15 46.6188V60.0416C112.15 60.1886 112.279 60.3078 112.438 60.3078H114.112C114.27 60.3078 114.399 60.1886 114.399 60.0416V46.6188C114.399 46.4717 114.27 46.3525 114.112 46.3525Z" fill="white"/>
<path d="M14.3224 57.6045C15.0155 54.2395 8.57384 53.3237 9.48257 48.7793C9.68675 47.7624 10.2418 47.0223 11.1792 46.4951C11.2897 46.4328 11.4282 46.4312 11.5403 46.4912C11.6524 46.5511 11.7201 46.6629 11.717 46.7827C11.6796 48.7394 11.208 50.6429 13.1894 52.1124C15.027 53.4781 16.9508 55.2591 16.5655 57.6418C16.5373 57.8163 16.3764 57.946 16.1859 57.948L14.6387 57.9586C14.543 57.9596 14.4519 57.9203 14.3906 57.8517C14.3293 57.7831 14.3043 57.6924 14.3224 57.6045Z" fill="white"/>
<path d="M41.8899 58.7137C39.9171 61.9723 34.9996 60.3776 35.0571 56.8635C35.0974 54.4888 35.1079 52.1159 35.0888 49.7447C35.0792 48.3142 35.7195 47.2618 37.0098 46.5873C37.0797 46.5505 37.1656 46.5517 37.2343 46.5904C37.303 46.6291 37.3437 46.6993 37.3405 46.7737C37.2254 50.2168 37.2072 53.6528 37.2858 57.0818C37.3261 58.8362 40.4434 58.4288 41.6713 58.3836C41.7582 58.3798 41.8405 58.4202 41.886 58.4888C41.9315 58.5575 41.9329 58.6437 41.8899 58.7137Z" fill="white"/>
<path d="M75.999 53.9097C76.0392 55.0651 76.0354 56.0714 75.9875 56.9287C75.8839 58.8748 79.0099 58.4461 80.2637 58.3396C80.3603 58.332 80.4537 58.3739 80.5071 58.4489C80.5605 58.5238 80.5653 58.6198 80.5196 58.699C78.6734 61.8777 73.8939 60.5679 73.8019 56.9713C73.7406 54.5433 73.755 52.1154 73.8451 49.6875C73.8997 48.2233 74.2735 47.3314 75.5849 46.6046C75.664 46.5598 75.763 46.5575 75.8444 46.5988C75.9257 46.64 75.977 46.7184 75.9788 46.8043C76.0536 49.1577 75.9156 51.5217 75.999 53.9097Z" fill="white"/>
<path d="M105.693 56.6638C105.693 58.956 108.546 58.4502 110.156 58.3783C110.239 58.3746 110.318 58.414 110.36 58.4804C110.402 58.5469 110.401 58.6296 110.357 58.6951C109.224 60.4069 107.119 61.0245 105.25 59.9623C103.766 59.1211 103.548 57.8512 103.542 56.198C103.534 54.2723 103.532 52.3457 103.536 50.4183C103.539 48.608 103.781 47.5351 105.394 46.6007C105.472 46.5547 105.572 46.5523 105.653 46.5946C105.734 46.6368 105.784 46.7169 105.782 46.803C105.723 50.0491 105.693 53.3361 105.693 56.6638Z" fill="white"/>
<path d="M101.866 48.8789H100.256C100.086 48.8789 99.9482 49.0064 99.9482 49.1638V60.0256C99.9482 60.1829 100.086 60.3104 100.256 60.3104H101.866C102.036 60.3104 102.174 60.1829 102.174 60.0256V49.1638C102.174 49.0064 102.036 48.8789 101.866 48.8789Z" fill="white"/>
<path d="M22.3013 49.0518H20.6334C20.4777 49.0518 20.3516 49.1686 20.3516 49.3127V60.052C20.3516 60.1961 20.4777 60.3129 20.6334 60.3129H22.3013C22.4569 60.3129 22.5831 60.1961 22.5831 60.052V49.3127C22.5831 49.1686 22.4569 49.0518 22.3013 49.0518Z" fill="white"/>
<path d="M95.8185 49.0781H94.2311C94.0485 49.0781 93.9004 49.2152 93.9004 49.3843V60.0118C93.9004 60.1809 94.0485 60.318 94.2311 60.318H95.8185C96.0011 60.318 96.1492 60.1809 96.1492 60.0118V49.3843C96.1492 49.2152 96.0011 49.0781 95.8185 49.0781Z" fill="white"/>
<path d="M80.6671 55.2471H78.8726C78.717 55.2471 78.5908 55.3639 78.5908 55.508V57.4887C78.5908 57.6327 78.717 57.7495 78.8726 57.7495H80.6671C80.8227 57.7495 80.9489 57.6327 80.9489 57.4887V55.508C80.9489 55.3639 80.8227 55.2471 80.6671 55.2471Z" fill="white"/>
<path d="M28.3847 55.6631H26.7685C26.5954 55.6631 26.4551 55.793 26.4551 55.9533V60.0211C26.4551 60.1814 26.5954 60.3113 26.7685 60.3113H28.3847C28.5578 60.3113 28.6981 60.1814 28.6981 60.0211V55.9533C28.6981 55.793 28.5578 55.6631 28.3847 55.6631Z" fill="white"/>
<path d="M11.2763 56.5633C11.9665 59.6674 13.8069 58.2112 16.0816 58.5653C16.2197 58.5866 16.258 58.6549 16.1967 58.7703C15.239 60.6418 12.4467 60.9533 10.7845 59.8112C9.78667 59.1243 9.29492 57.921 9.1195 56.7816C9.11051 56.7226 9.12796 56.6628 9.16773 56.6164C9.2075 56.57 9.26603 56.5411 9.32943 56.5367L11.052 56.4062C11.1766 56.3974 11.2514 56.4497 11.2763 56.5633Z" fill="white"/>
<path d="M8.07413 60.1476C8.07928 60.1835 8.05244 60.2167 8.01374 60.2222L6.67653 60.3925C6.17993 60.456 5.73215 60.2046 5.67578 59.8308L5.46873 58.4438C5.4125 58.07 5.76892 57.715 6.2653 57.6505L7.60251 57.4801C7.64132 57.4753 7.67711 57.5002 7.68303 57.536L8.07413 60.1476Z" fill="white"/>
<path d="M89.8107 57.5839L87.7013 57.813C87.6592 57.8176 87.629 57.853 87.634 57.8921L87.946 60.3588C87.9509 60.3979 87.9891 60.4259 88.0313 60.4213L90.1407 60.1922C90.1828 60.1876 90.213 60.1522 90.208 60.113L89.896 57.6464C89.8911 57.6073 89.8529 57.5793 89.8107 57.5839Z" fill="white"/>
<path d="M54.9676 58.2711L49.2521 58.2149C49.0282 58.2127 48.8447 58.3787 48.8423 58.5856L48.8268 59.9087C48.8244 60.1156 49.0039 60.2851 49.2278 60.2873L54.9433 60.3435C55.1672 60.3457 55.3507 60.1798 55.3531 59.9729L55.3686 58.6498C55.371 58.4429 55.1915 58.2734 54.9676 58.2711Z" fill="white"/>
<path d="M68.2837 60.4376C68.1296 60.4292 68.0089 60.3116 68.0077 60.1687L67.999 58.4729C67.999 58.3628 68.0585 58.3105 68.1773 58.3158C68.7726 58.3451 71.539 58.2652 71.8352 58.4249C72.0001 58.5155 72.0308 58.6344 71.9273 58.7817C71.0914 59.9903 69.8769 60.5423 68.2837 60.4376Z" fill="white"/>
</g>
</g>
<defs>
<clipPath id="clip0_1_1590">
<rect width="120" height="60" fill="white" transform="translate(0 0.5)"/>
</clipPath>
</defs>
</svg>
