<?xml version="1.0" encoding="UTF-8"?>
<!DOCTYPE svg PUBLIC "-//W3C//DTD SVG 1.1//EN" "http://www.w3.org/Graphics/SVG/1.1/DTD/svg11.dtd">
<!-- Creator: CorelDRAW 2018 (64-Bit) -->
<svg xmlns="http://www.w3.org/2000/svg" xml:space="preserve" width="0.1in" height="0.1in" version="1.1" style="shape-rendering:geometricPrecision; text-rendering:geometricPrecision; image-rendering:optimizeQuality; fill-rule:evenodd; clip-rule:evenodd"
viewBox="0 0 100 100"
 xmlns:xlink="http://www.w3.org/1999/xlink">
 <defs>
  <style type="text/css">
   <![CDATA[
    .fil0 {fill:#414041;fill-rule:nonzero}
    .fil1 {fill:#E53338;fill-rule:nonzero}
   ]]>
  </style>
 </defs>
 <g id="Слой_x0020_1">
  <metadata id="CorelCorpID_0Corel-Layer"/>
  <g id="_2157355163552">
   <path class="fil0" d="M34.16 83.56c8.69,-23.83 23.1,-36.44 31.45,-40.57l3.94 -16.67 -10.35 3.3 -7.71 -20.89 -7.71 20.89 -10.35 -3.3 5.8 24.54 -12.87 -5.56 0.8 5.24 -17.15 -5.72 10.56 15.96 -9.13 5.08 22.08 7.39 -9.69 11.91 10.34 -1.61z"/>
   <path class="fil1" d="M82.41 60.79l10.56 -15.96 -17.15 5.72 0.79 -5.24 -12.87 5.56 0.03 -0.13c4.12,-7.28 8.7,-10.27 8.7,-10.27l-3.22 1.83c-16.21,10.48 -28.42,31.71 -29.49,46.57l11.72 -11.65 6.94 9.13 0.95 -3.89 19.78 2.7 -9.69 -11.91 22.08 -7.39 -9.13 -5.08z"/>
   <path class="fil1" d="M85.8 44.06c-0.01,-1.48 -0,-2.96 -0.02,-4.44 0,-0.17 0.03,-0.3 0.12,-0.39l0.3 -0.19c0.06,-0.04 0.12,-0.07 0.18,-0.11l0.17 -0.11c0.02,-0.01 0.04,-0.02 0.06,-0.03l0.15 -0.1c0.05,-0.03 0.06,-0.09 0.03,-0.15l-0.43 -0.68c-0.03,-0.05 -0.09,-0.06 -0.15,-0.03l-0.41 0.26c-0.01,-0 -0.01,-0 -0.02,-0.01 0,-0.54 -0,-1.04 0,-1.54 0,-0.07 0.06,-0.15 0.12,-0.19l0.81 -0.52c0.05,-0.03 0.07,-0.09 0.04,-0.15l-0.22 -0.35c-0.01,-0.01 -0.02,-0.02 -0.02,-0.04l-0.2 -0.31c-0.03,-0.05 -0.1,-0.06 -0.15,-0.03l-0.38 0.24c0,-0.54 -0.01,-1.07 0,-1.61 0,-0.06 0.11,-0.13 0.19,-0.18 1.24,-0.78 0.1,-0.09 1.34,-0.88 0.69,-0.43 1.35,-0.9 1.89,-1.52 0.15,-0.17 0.28,-0.35 0.37,-0.56 0.08,-0.16 0.08,-0.3 0.01,-0.4 -0.06,-0.1 -0.19,-0.16 -0.37,-0.16 -0.22,-0 -0.45,0.03 -0.66,0.09 -0.79,0.22 -1.49,0.62 -2.18,1.06 -1.24,0.79 -0.13,0.05 -1.37,0.83 -0.07,0.05 -0.18,0.12 -0.24,0.09 -0.48,-0.22 -0.96,-0.45 -1.45,-0.69l0.38 -0.24c0.05,-0.03 0.07,-0.1 0.04,-0.15l-0.2 -0.31c-0.01,-0.01 -0.02,-0.02 -0.02,-0.04l-0.22 -0.35c-0.03,-0.05 -0.1,-0.07 -0.15,-0.04l-0.81 0.52c-0.07,0.03 -0.17,0.05 -0.22,0.02 -0.46,-0.2 -0.9,-0.43 -1.39,-0.66 0,-0.01 0,-0.01 0,-0.02l0.41 -0.26c0.05,-0.03 0.07,-0.1 0.04,-0.15l-0.43 -0.68c-0.03,-0.05 -0.09,-0.07 -0.15,-0.04l-0.15 0.1c-0.02,0.01 -0.04,0.02 -0.05,0.04l-0.17 0.11c-0.06,0.04 -0.12,0.07 -0.17,0.11l-0.3 0.19c-0.13,0.04 -0.25,0.02 -0.41,-0.06 -1.33,-0.65 -2.67,-1.28 -4,-1.93 -0.14,-0.07 -0.25,-0.06 -0.38,0.02 -0.17,0.11 -0.33,0.22 -0.5,0.32 0.77,0.69 1.61,1.44 1.85,1.67 1.43,1.36 2.85,2.72 4.28,4.08 0.24,0.22 0.47,0.46 0.71,0.7 -0.06,0.04 -0.09,0.07 -0.12,0.09 -1.13,0.76 -2.25,1.52 -3.38,2.27 -0.09,0.06 -0.24,0.06 -0.34,0.04 -1,-0.26 -2,-0.53 -3,-0.79 -0.08,-0.02 -0.18,-0.06 -0.24,-0.03 -0.25,0.14 -0.48,0.3 -0.77,0.48 0.83,0.67 1.61,1.29 2.41,1.93 -0.19,0.24 -0.35,0.43 -0.5,0.64 -0.04,0.05 -0.06,0.15 -0.05,0.2 0.05,0.04 0.14,0.06 0.2,0.05 0.25,-0.05 0.5,-0.11 0.79,-0.18 0.23,1 0.46,1.97 0.7,3.01 0.29,-0.18 0.54,-0.33 0.77,-0.49 0.05,-0.04 0.06,-0.15 0.08,-0.23 0.19,-1.02 0.38,-2.03 0.58,-3.05 0.02,-0.11 0.09,-0.24 0.18,-0.29 1.16,-0.7 2.33,-1.38 3.5,-2.07 0.03,-0.02 0.07,-0.04 0.13,-0.07 0.11,0.32 0.22,0.63 0.32,0.94 0.61,1.87 1.23,3.75 1.84,5.62 0.1,0.32 0.42,1.4 0.72,2.39 0.17,-0.11 0.33,-0.21 0.5,-0.31 0.14,-0.08 0.19,-0.18 0.19,-0.33z"/>
  </g>
 </g>
</svg>
