<svg version="1.2" xmlns="http://www.w3.org/2000/svg" viewBox="0 0 5000 2500" width="140" height="70">
	<title>Canada_Visa-cdr</title>
	<defs>
		<clipPath clipPathUnits="userSpaceOnUse" id="cp1">
			<path d="m0 0h5000v2500h-5000z"/>
		</clipPath>
	</defs>
	<style>
		.s0 { fill: #373a40 } 
		.s1 { fill: #fd2d17 } 
	</style>
	<g id="Page 2" clip-path="url(#cp1)">
		<g id="Group 36">
		</g>
		<g id="Group 38">
			<g id="Group 39">
				<g id="Group 40">
					<path id="Object 41" class="s0" d="m1044.8 1567c79.2-217.3 210.6-332.3 286.8-370l35.9-152-94.4 30.1-70.3-190.6-70.3 190.6-94.4-30.1 52.9 223.8-117.4-50.7 7.3 47.8-156.5-52.1 96.4 145.6-83.3 46.3 201.3 67.4-88.3 108.6z"/>
					<path id="Object 42" class="s1" d="m1484.8 1359.4l96.4-145.6-156.5 52.1 7.3-47.8-117.4 50.7 0.3-1.1c37.6-66.4 79.4-93.7 79.4-93.7l-29.4 16.7c-147.9 95.6-259.2 289.2-268.9 424.8l106.8-106.2 63.3 83.3 8.7-35.5 180.3 24.6-88.3-108.6 201.3-67.4z"/>
					<path id="Object 43" class="s1" d="m1515.7 1206.8c-0.1-13.5 0-27-0.2-40.5 0-1.6 0.3-2.7 1.1-3.6l2.7-1.7q0.8-0.5 1.6-1l1.6-1q0.2-0.2 0.5-0.3l1.4-0.9c0.4-0.3 0.6-0.9 0.3-1.3l-3.9-6.3c-0.3-0.4-0.9-0.5-1.4-0.3l-3.7 2.4c-0.1 0-0.1 0-0.2-0.1 0-4.9 0-9.5 0.1-14 0-0.6 0.5-1.4 1-1.8l7.4-4.7c0.5-0.3 0.6-0.9 0.3-1.3l-2-3.2q-0.1-0.2-0.2-0.4l-1.8-2.8c-0.3-0.4-0.9-0.6-1.3-0.3l-3.5 2.2c0-5-0.1-9.8 0-14.7 0-0.5 1.1-1.1 1.7-1.6 11.4-7.1 0.9-0.8 12.3-8 6.3-4 12.3-8.2 17.3-13.8 1.3-1.5 2.5-3.3 3.3-5.1 0.7-1.5 0.7-2.8 0.1-3.6-0.5-1-1.7-1.5-3.3-1.5-2.1-0.1-4.1 0.3-6.1 0.8-7.2 2-13.6 5.7-19.9 9.7-11.3 7.1-1.2 0.4-12.5 7.6-0.7 0.4-1.7 1-2.2 0.8-4.4-2-8.8-4.1-13.2-6.3l3.5-2.2c0.4-0.2 0.5-0.8 0.3-1.3l-1.8-2.8q-0.1-0.2-0.3-0.4l-2-3.2c-0.3-0.4-0.9-0.6-1.3-0.3l-7.4 4.7c-0.6 0.3-1.5 0.4-2.1 0.2-4.1-1.9-8.2-3.9-12.7-6 0-0.1 0-0.1 0-0.2l3.8-2.3c0.4-0.3 0.6-0.9 0.3-1.4l-3.9-6.2c-0.3-0.4-0.9-0.6-1.4-0.3l-1.4 0.9q-0.2 0.1-0.5 0.3l-1.5 1q-0.8 0.5-1.6 1l-2.8 1.7c-1.1 0.4-2.3 0.2-3.7-0.5-12.1-6-24.3-11.7-36.4-17.6-1.4-0.7-2.3-0.6-3.6 0.2q-2.2 1.5-4.5 2.9c7 6.3 14.7 13.2 16.9 15.3q19.5 18.6 39 37.2c2.2 2 4.3 4.1 6.5 6.3-0.5 0.4-0.8 0.7-1.1 0.9-10.3 6.9-20.5 13.8-30.8 20.7-0.8 0.5-2.2 0.6-3.1 0.3-9.2-2.3-18.3-4.8-27.4-7.1-0.7-0.2-1.6-0.6-2.2-0.3-2.2 1.3-4.4 2.7-7 4.4 7.6 6.1 14.7 11.8 22 17.6-1.7 2.1-3.2 3.9-4.6 5.8-0.3 0.5-0.5 1.4-0.4 1.9 0.4 0.3 1.3 0.5 1.8 0.4 2.3-0.4 4.6-1 7.3-1.7 2.1 9.1 4.2 18 6.4 27.5 2.7-1.7 4.9-3 7-4.5 0.5-0.3 0.6-1.3 0.7-2 1.8-9.3 3.5-18.6 5.3-27.8 0.2-1 0.8-2.2 1.6-2.7 10.7-6.4 21.3-12.6 32-18.9 0.3-0.2 0.6-0.3 1.2-0.6 1 2.9 2 5.7 3 8.6q8.4 25.6 16.8 51.2c0.9 2.9 3.8 12.7 6.5 21.8q2.3-1.5 4.6-2.9c1.2-0.7 1.7-1.6 1.7-3z"/>
				</g>
				<g id="Group 45">
					<g id="Group 46">
						<path id="Object 47" class="s0" d="m1793.3 1468q-61.6 0-102.4-41.2-40.4-40.8-40.4-101.6 0-61.2 40.4-101.6 40.8-41.1 102.4-41.1 37.2 0 68.8 17.4 31.6 17.5 49.2 47.3l-46.6 27q-10.2-18.4-29.1-28.8-18.8-10.4-42.3-10.4-40 0-64.7 25.1-24.4 25.5-24.4 65.1 0 39.3 24.4 64.7 24.7 25.1 64.7 25.1 23.5 0 42.5-10.3 19-10.4 28.9-28.5l46.6 27.1q-17.6 29.8-49.2 47.2-31.6 17.5-68.8 17.5z"/>
						<path id="Object 48" fill-rule="evenodd" class="s0" d="m2178.8 1462.5h-58.8l-16.5-49.4h-109.4l-16.5 49.4h-58.4l96.1-274.5h67zm-129.8-212.2l-37.6 112.1h75.3z"/>
						<path id="Object 49" class="s0" d="m2364.3 1355.4v-167.4h54.2v274.5h-41.2l-117.7-167.9v167.9h-54.1v-274.5h41.2z"/>
						<path id="Object 50" fill-rule="evenodd" class="s0" d="m2704.8 1462.5h-58.9l-16.4-49.4h-109.5l-16.4 49.4h-58.5l96.1-274.5h67.1zm-129.8-212.2l-37.7 112.1h75.3z"/>
						<path id="Object 51" fill-rule="evenodd" class="s0" d="m2731.4 1188h109.1q56.4 0 94.1 39.6 38 39.2 38 97.6 0 58.5-38 97.7-37.7 39.6-94.1 39.6h-109.1zm54.2 222.8h54.9q35.7 0 58-23.6 22.4-24.3 22.4-61.9 0-38.1-22.4-61.6-22.3-23.9-58-23.9h-54.9z"/>
						<path id="Object 52" fill-rule="evenodd" class="s0" d="m3236.6 1462.5h-58.8l-16.5-49.4h-109.4l-16.5 49.4h-58.4l96.1-274.5h67zm-129.8-212.2l-37.7 112.1h75.4z"/>
					</g>
					<g id="Group 54">
						<path id="Object 55" class="s1" d="m3496.2 1462.5h-67l-92.2-274.5h58.8l67.1 211 66.7-211h59.2z"/>
						<path id="Object 56" class="s1" d="m3615.1 1188h54.1v274.5h-54.1z"/>
						<path id="Object 57" class="s1" d="m3809.6 1468q-40.4 0-68.2-18-27.9-18.1-39.6-49.9l46.2-27q16.1 42 63.2 41.9 21.9 0.1 32.9-7.8 11-7.8 11-21.2 0-14.5-12.9-22.3-13-8.3-46.3-17.7-36.1-11-56.9-25.5-25.9-19.2-25.9-56.5 0-37.6 26.3-59.2 26.3-22.3 63.9-22.3 33 0 58.5 16 25.5 16.1 39.6 45.5l-45.5 26.3q-16.5-35.3-52.6-35.3-16.4 0-26.2 7.7-9.8 7.6-9.8 19.8 0 12.9 10.5 21.2 11.8 8.2 41.6 17.2l18.9 6.3q5 1.6 17.6 6.7 11.8 4.3 17.3 8.2 19.2 11.8 25.8 24.3 10.2 16.5 10.2 38.8 0 38.1-27.8 60.4-27.9 22.4-71.8 22.4z"/>
						<path id="Object 58" fill-rule="evenodd" class="s1" d="m4175.6 1462.5h-58.9l-16.5-49.4h-109.4l-16.5 49.4h-58.4l96.1-274.5h67.1zm-129.9-212.2l-37.6 112.1h75.3z"/>
						<path id="Object 41 copy" class="s0" d="m1044.8 1567c79.2-217.3 210.6-332.3 286.8-370l35.9-152-94.4 30.1-70.3-190.6-70.3 190.6-94.4-30.1 52.9 223.8-117.4-50.7 7.3 47.8-156.5-52.1 96.4 145.6-83.3 46.3 201.3 67.4-88.3 108.6z"/>
						<path id="Object 42 copy" class="s1" d="m1484.8 1359.4l96.4-145.6-156.5 52.1 7.3-47.8-117.4 50.7 0.3-1.1c37.6-66.4 79.4-93.7 79.4-93.7l-29.4 16.7c-147.9 95.6-259.2 289.2-268.9 424.8l106.8-106.2 63.3 83.3 8.7-35.5 180.3 24.6-88.3-108.6 201.3-67.4z"/>
						<path id="Object 43 copy" class="s1" d="m1515.7 1206.8c-0.1-13.5 0-27-0.2-40.5 0-1.6 0.3-2.7 1.1-3.6l2.7-1.7q0.8-0.5 1.6-1l1.6-1q0.2-0.2 0.5-0.3l1.4-0.9c0.4-0.3 0.6-0.9 0.3-1.3l-3.9-6.3c-0.3-0.4-0.9-0.5-1.4-0.3l-3.7 2.4c-0.1 0-0.1 0-0.2-0.1 0-4.9 0-9.5 0.1-14 0-0.6 0.5-1.4 1-1.8l7.4-4.7c0.5-0.3 0.6-0.9 0.3-1.3l-2-3.2q-0.1-0.2-0.2-0.4l-1.8-2.8c-0.3-0.4-0.9-0.6-1.3-0.3l-3.5 2.2c0-5-0.1-9.8 0-14.7 0-0.5 1.1-1.1 1.7-1.6 11.4-7.1 0.9-0.8 12.3-8 6.3-4 12.3-8.2 17.3-13.8 1.3-1.5 2.5-3.3 3.3-5.1 0.7-1.5 0.7-2.8 0.1-3.6-0.5-1-1.7-1.5-3.3-1.5-2.1-0.1-4.1 0.3-6.1 0.8-7.2 2-13.6 5.7-19.9 9.7-11.3 7.1-1.2 0.4-12.5 7.6-0.7 0.4-1.7 1-2.2 0.8-4.4-2-8.8-4.1-13.2-6.3l3.5-2.2c0.4-0.2 0.5-0.8 0.3-1.3l-1.8-2.8q-0.1-0.2-0.3-0.4l-2-3.2c-0.3-0.4-0.9-0.6-1.3-0.3l-7.4 4.7c-0.6 0.3-1.5 0.4-2.1 0.2-4.1-1.9-8.2-3.9-12.7-6 0-0.1 0-0.1 0-0.2l3.8-2.3c0.4-0.3 0.6-0.9 0.3-1.4l-3.9-6.2c-0.3-0.4-0.9-0.6-1.4-0.3l-1.4 0.9q-0.2 0.1-0.5 0.3l-1.5 1q-0.8 0.5-1.6 1l-2.8 1.7c-1.1 0.4-2.3 0.2-3.7-0.5-12.1-6-24.3-11.7-36.4-17.6-1.4-0.7-2.3-0.6-3.6 0.2q-2.2 1.5-4.5 2.9c7 6.3 14.7 13.2 16.9 15.3q19.5 18.6 39 37.2c2.2 2 4.3 4.1 6.5 6.3-0.5 0.4-0.8 0.7-1.1 0.9-10.3 6.9-20.5 13.8-30.8 20.7-0.8 0.5-2.2 0.6-3.1 0.3-9.2-2.3-18.3-4.8-27.4-7.1-0.7-0.2-1.6-0.6-2.2-0.3-2.2 1.3-4.4 2.7-7 4.4 7.6 6.1 14.7 11.8 22 17.6-1.7 2.1-3.2 3.9-4.6 5.8-0.3 0.5-0.5 1.4-0.4 1.9 0.4 0.3 1.3 0.5 1.8 0.4 2.3-0.4 4.6-1 7.3-1.7 2.1 9.1 4.2 18 6.4 27.5 2.7-1.7 4.9-3 7-4.5 0.5-0.3 0.6-1.3 0.7-2 1.8-9.3 3.5-18.6 5.3-27.8 0.2-1 0.8-2.2 1.6-2.7 10.7-6.4 21.3-12.6 32-18.9 0.3-0.2 0.6-0.3 1.2-0.6 1 2.9 2 5.7 3 8.6q8.4 25.6 16.8 51.2c0.9 2.9 3.8 12.7 6.5 21.8q2.3-1.5 4.6-2.9c1.2-0.7 1.7-1.6 1.7-3z"/>
						<path id="Object 47 copy" class="s0" d="m1793.3 1468q-61.6 0-102.4-41.2-40.4-40.8-40.4-101.6 0-61.2 40.4-101.6 40.8-41.1 102.4-41.1 37.2 0 68.8 17.4 31.6 17.5 49.2 47.3l-46.6 27q-10.2-18.4-29.1-28.8-18.8-10.4-42.3-10.4-40 0-64.7 25.1-24.4 25.5-24.4 65.1 0 39.3 24.4 64.7 24.7 25.1 64.7 25.1 23.5 0 42.5-10.3 19-10.4 28.9-28.5l46.6 27.1q-17.6 29.8-49.2 47.2-31.6 17.5-68.8 17.5z"/>
						<path id="Object 48 copy" fill-rule="evenodd" class="s0" d="m2178.8 1462.5h-58.8l-16.5-49.4h-109.4l-16.5 49.4h-58.4l96.1-274.5h67zm-129.8-212.2l-37.6 112.1h75.3z"/>
						<path id="Object 49 copy" class="s0" d="m2364.3 1355.4v-167.4h54.2v274.5h-41.2l-117.7-167.9v167.9h-54.1v-274.5h41.2z"/>
						<path id="Object 50 copy" fill-rule="evenodd" class="s0" d="m2704.8 1462.5h-58.9l-16.4-49.4h-109.5l-16.4 49.4h-58.5l96.1-274.5h67.1zm-129.8-212.2l-37.7 112.1h75.3z"/>
						<path id="Object 51 copy" fill-rule="evenodd" class="s0" d="m2731.4 1188h109.1q56.4 0 94.1 39.6 38 39.2 38 97.6 0 58.5-38 97.7-37.7 39.6-94.1 39.6h-109.1zm54.2 222.8h54.9q35.7 0 58-23.6 22.4-24.3 22.4-61.9 0-38.1-22.4-61.6-22.3-23.9-58-23.9h-54.9z"/>
						<path id="Object 52 copy" fill-rule="evenodd" class="s0" d="m3236.6 1462.5h-58.8l-16.5-49.4h-109.4l-16.5 49.4h-58.4l96.1-274.5h67zm-129.8-212.2l-37.7 112.1h75.4z"/>
						<path id="Object 55 copy" class="s1" d="m3496.2 1462.5h-67l-92.2-274.5h58.8l67.1 211 66.7-211h59.2z"/>
						<path id="Object 56 copy" class="s1" d="m3615.1 1188h54.1v274.5h-54.1z"/>
						<path id="Object 57 copy" class="s1" d="m3809.6 1468q-40.4 0-68.2-18-27.9-18.1-39.6-49.9l46.2-27q16.1 42 63.2 41.9 21.9 0.1 32.9-7.8 11-7.8 11-21.2 0-14.5-12.9-22.3-13-8.3-46.3-17.7-36.1-11-56.9-25.5-25.9-19.2-25.9-56.5 0-37.6 26.3-59.2 26.3-22.3 63.9-22.3 33 0 58.5 16 25.5 16.1 39.6 45.5l-45.5 26.3q-16.5-35.3-52.6-35.3-16.4 0-26.2 7.7-9.8 7.6-9.8 19.8 0 12.9 10.5 21.2 11.8 8.2 41.6 17.2l18.9 6.3q5 1.6 17.6 6.7 11.8 4.3 17.3 8.2 19.2 11.8 25.8 24.3 10.2 16.5 10.2 38.8 0 38.1-27.8 60.4-27.9 22.4-71.8 22.4z"/>
						<path id="Object 58 copy" fill-rule="evenodd" class="s1" d="m4175.6 1462.5h-58.9l-16.5-49.4h-109.4l-16.5 49.4h-58.4l96.1-274.5h67.1zm-129.9-212.2l-37.6 112.1h75.3z"/>
						<path id="Object 41 copy 2" class="s0" d="m1044.8 1567c79.2-217.3 210.6-332.3 286.8-370l35.9-152-94.4 30.1-70.3-190.6-70.3 190.6-94.4-30.1 52.9 223.8-117.4-50.7 7.3 47.8-156.5-52.1 96.4 145.6-83.3 46.3 201.3 67.4-88.3 108.6z"/>
						<path id="Object 42 copy 2" class="s1" d="m1484.8 1359.4l96.4-145.6-156.5 52.1 7.3-47.8-117.4 50.7 0.3-1.1c37.6-66.4 79.4-93.7 79.4-93.7l-29.4 16.7c-147.9 95.6-259.2 289.2-268.9 424.8l106.8-106.2 63.3 83.3 8.7-35.5 180.3 24.6-88.3-108.6 201.3-67.4z"/>
						<path id="Object 43 copy 2" class="s1" d="m1515.7 1206.8c-0.1-13.5 0-27-0.2-40.5 0-1.6 0.3-2.7 1.1-3.6l2.7-1.7q0.8-0.5 1.6-1l1.6-1q0.2-0.2 0.5-0.3l1.4-0.9c0.4-0.3 0.6-0.9 0.3-1.3l-3.9-6.3c-0.3-0.4-0.9-0.5-1.4-0.3l-3.7 2.4c-0.1 0-0.1 0-0.2-0.1 0-4.9 0-9.5 0.1-14 0-0.6 0.5-1.4 1-1.8l7.4-4.7c0.5-0.3 0.6-0.9 0.3-1.3l-2-3.2q-0.1-0.2-0.2-0.4l-1.8-2.8c-0.3-0.4-0.9-0.6-1.3-0.3l-3.5 2.2c0-5-0.1-9.8 0-14.7 0-0.5 1.1-1.1 1.7-1.6 11.4-7.1 0.9-0.8 12.3-8 6.3-4 12.3-8.2 17.3-13.8 1.3-1.5 2.5-3.3 3.3-5.1 0.7-1.5 0.7-2.8 0.1-3.6-0.5-1-1.7-1.5-3.3-1.5-2.1-0.1-4.1 0.3-6.1 0.8-7.2 2-13.6 5.7-19.9 9.7-11.3 7.1-1.2 0.4-12.5 7.6-0.7 0.4-1.7 1-2.2 0.8-4.4-2-8.8-4.1-13.2-6.3l3.5-2.2c0.4-0.2 0.5-0.8 0.3-1.3l-1.8-2.8q-0.1-0.2-0.3-0.4l-2-3.2c-0.3-0.4-0.9-0.6-1.3-0.3l-7.4 4.7c-0.6 0.3-1.5 0.4-2.1 0.2-4.1-1.9-8.2-3.9-12.7-6 0-0.1 0-0.1 0-0.2l3.8-2.3c0.4-0.3 0.6-0.9 0.3-1.4l-3.9-6.2c-0.3-0.4-0.9-0.6-1.4-0.3l-1.4 0.9q-0.2 0.1-0.5 0.3l-1.5 1q-0.8 0.5-1.6 1l-2.8 1.7c-1.1 0.4-2.3 0.2-3.7-0.5-12.1-6-24.3-11.7-36.4-17.6-1.4-0.7-2.3-0.6-3.6 0.2q-2.2 1.5-4.5 2.9c7 6.3 14.7 13.2 16.9 15.3q19.5 18.6 39 37.2c2.2 2 4.3 4.1 6.5 6.3-0.5 0.4-0.8 0.7-1.1 0.9-10.3 6.9-20.5 13.8-30.8 20.7-0.8 0.5-2.2 0.6-3.1 0.3-9.2-2.3-18.3-4.8-27.4-7.1-0.7-0.2-1.6-0.6-2.2-0.3-2.2 1.3-4.4 2.7-7 4.4 7.6 6.1 14.7 11.8 22 17.6-1.7 2.1-3.2 3.9-4.6 5.8-0.3 0.5-0.5 1.4-0.4 1.9 0.4 0.3 1.3 0.5 1.8 0.4 2.3-0.4 4.6-1 7.3-1.7 2.1 9.1 4.2 18 6.4 27.5 2.7-1.7 4.9-3 7-4.5 0.5-0.3 0.6-1.3 0.7-2 1.8-9.3 3.5-18.6 5.3-27.8 0.2-1 0.8-2.2 1.6-2.7 10.7-6.4 21.3-12.6 32-18.9 0.3-0.2 0.6-0.3 1.2-0.6 1 2.9 2 5.7 3 8.6q8.4 25.6 16.8 51.2c0.9 2.9 3.8 12.7 6.5 21.8q2.3-1.5 4.6-2.9c1.2-0.7 1.7-1.6 1.7-3z"/>
						<path id="Object 47 copy 2" class="s0" d="m1793.3 1468q-61.6 0-102.4-41.2-40.4-40.8-40.4-101.6 0-61.2 40.4-101.6 40.8-41.1 102.4-41.1 37.2 0 68.8 17.4 31.6 17.5 49.2 47.3l-46.6 27q-10.2-18.4-29.1-28.8-18.8-10.4-42.3-10.4-40 0-64.7 25.1-24.4 25.5-24.4 65.1 0 39.3 24.4 64.7 24.7 25.1 64.7 25.1 23.5 0 42.5-10.3 19-10.4 28.9-28.5l46.6 27.1q-17.6 29.8-49.2 47.2-31.6 17.5-68.8 17.5z"/>
						<path id="Object 48 copy 2" fill-rule="evenodd" class="s0" d="m2178.8 1462.5h-58.8l-16.5-49.4h-109.4l-16.5 49.4h-58.4l96.1-274.5h67zm-129.8-212.2l-37.6 112.1h75.3z"/>
						<path id="Object 49 copy 2" class="s0" d="m2364.3 1355.4v-167.4h54.2v274.5h-41.2l-117.7-167.9v167.9h-54.1v-274.5h41.2z"/>
						<path id="Object 50 copy 2" fill-rule="evenodd" class="s0" d="m2704.8 1462.5h-58.9l-16.4-49.4h-109.5l-16.4 49.4h-58.5l96.1-274.5h67.1zm-129.8-212.2l-37.7 112.1h75.3z"/>
						<path id="Object 51 copy 2" fill-rule="evenodd" class="s0" d="m2731.4 1188h109.1q56.4 0 94.1 39.6 38 39.2 38 97.6 0 58.5-38 97.7-37.7 39.6-94.1 39.6h-109.1zm54.2 222.8h54.9q35.7 0 58-23.6 22.4-24.3 22.4-61.9 0-38.1-22.4-61.6-22.3-23.9-58-23.9h-54.9z"/>
						<path id="Object 52 copy 2" fill-rule="evenodd" class="s0" d="m3236.6 1462.5h-58.8l-16.5-49.4h-109.4l-16.5 49.4h-58.4l96.1-274.5h67zm-129.8-212.2l-37.7 112.1h75.4z"/>
						<path id="Object 55 copy 2" class="s1" d="m3496.2 1462.5h-67l-92.2-274.5h58.8l67.1 211 66.7-211h59.2z"/>
						<path id="Object 56 copy 2" class="s1" d="m3615.1 1188h54.1v274.5h-54.1z"/>
						<path id="Object 57 copy 2" class="s1" d="m3809.6 1468q-40.4 0-68.2-18-27.9-18.1-39.6-49.9l46.2-27q16.1 42 63.2 41.9 21.9 0.1 32.9-7.8 11-7.8 11-21.2 0-14.5-12.9-22.3-13-8.3-46.3-17.7-36.1-11-56.9-25.5-25.9-19.2-25.9-56.5 0-37.6 26.3-59.2 26.3-22.3 63.9-22.3 33 0 58.5 16 25.5 16.1 39.6 45.5l-45.5 26.3q-16.5-35.3-52.6-35.3-16.4 0-26.2 7.7-9.8 7.6-9.8 19.8 0 12.9 10.5 21.2 11.8 8.2 41.6 17.2l18.9 6.3q5 1.6 17.6 6.7 11.8 4.3 17.3 8.2 19.2 11.8 25.8 24.3 10.2 16.5 10.2 38.8 0 38.1-27.8 60.4-27.9 22.4-71.8 22.4z"/>
						<path id="Object 58 copy 2" fill-rule="evenodd" class="s1" d="m4175.6 1462.5h-58.9l-16.5-49.4h-109.4l-16.5 49.4h-58.4l96.1-274.5h67.1zm-129.9-212.2l-37.6 112.1h75.3z"/>
					</g>
				</g>
			</g>
		</g>
		<g id="Group 63">
		</g>
		<g id="Group 65">
		</g>
		<g id="Group 67">
		</g>
	</g>
</svg>