<?xml version="1.0" encoding="UTF-8"?>
<!DOCTYPE svg PUBLIC "-//W3C//DTD SVG 1.1//EN" "http://www.w3.org/Graphics/SVG/1.1/DTD/svg11.dtd">
<!-- Creator: CorelDRAW 2018 (64-Bit) -->
<svg xmlns="http://www.w3.org/2000/svg" xml:space="preserve" width="33.3333in" height="16.6667in" version="1.1" style="shape-rendering:geometricPrecision; text-rendering:geometricPrecision; image-rendering:optimizeQuality; fill-rule:evenodd; clip-rule:evenodd"
viewBox="0 0 33333.33 16666.66"
 xmlns:xlink="http://www.w3.org/1999/xlink">
 <defs>
  <style type="text/css">
   <![CDATA[
    .fil0 {fill:#fff;fill-rule:nonzero}
    .fil1 {fill:#fff;fill-rule:nonzero}
   ]]>
  </style>
 </defs>
 <g id="Слой_x0020_1">
  <metadata id="CorelCorpID_0Corel-Layer"/>
  <g id="_2556521397984">
   <g>
    <path class="fil0" d="M2399.03 11379.06c729.83,-1992.31 1941.13,-3047.01 2643.24,-3392.35l330.86 -1393.37 -869.62 275.7 -648.17 -1746.98 -648.17 1746.98 -869.61 -275.7 487.22 2051.87 -1081.24 -464.82 66.74 438.26 -1441.65 -478.1 887.69 1334.71 -767.54 424.98 1855.46 617.55 -814.27 996.05 869.07 -134.77z"/>
    <path class="fil1" d="M6454.37 9475.25l887.69 -1334.7 -1441.65 478.1 66.74 -438.26 -1081.24 464.83 2.54 -10.69c345.98,-608.19 731.32,-858.69 731.32,-858.69l-270.91 153.34c-1362.37,876.69 -2388.52,2651.52 -2477.97,3894.13l984.46 -973.5 583.38 763.64 80.09 -325.37 1661.9 225.77 -814.26 -996.05 1855.46 -617.55 -767.55 -424.98z"/>
    <path class="fil1" d="M6738.69 8076.44c-0.8,-123.84 -0.38,-247.72 -1.9,-371.55 -0.19,-14.3 2.61,-24.65 10.26,-32.63l25.14 -15.78c4.97,-2.94 9.84,-6.07 14.7,-9.24l14.44 -9.07c1.53,-0.85 3.05,-1.73 4.35,-2.73l13.01 -8.18c4.19,-2.63 5.43,-8.13 2.79,-12.28l-36.12 -56.92c-2.64,-4.16 -8.17,-5.4 -12.35,-2.78l-34.51 21.67c-0.61,-0.34 -0.76,-0.42 -1.37,-0.76 -0.1,-45.51 -0.61,-87.15 0.23,-128.81 0.15,-5.39 4.92,-12.14 9.78,-16.11l68.4 -42.96c4.18,-2.63 5.43,-8.13 2.79,-12.29l-18.5 -29.15c-0.73,-1.17 -1.43,-2.28 -2.13,-3.35l-16.48 -25.96c-2.63,-4.16 -8.17,-5.41 -12.34,-2.78l-32.22 20.24c-0.09,-45.61 -0.72,-90.11 0.4,-134.52 0.13,-5.09 9.5,-10.88 15.64,-14.68 104.8,-65.53 8.42,-8 113.05,-73.71 57.76,-36.23 113.74,-75.12 159.09,-126.71 12.22,-13.92 23.09,-29.74 30.93,-46.42 6.39,-13.69 6.39,-25.6 0.84,-33.57 -4.85,-8.41 -15.65,-13.53 -30.82,-13.68 -18.52,-0.13 -37.54,2.83 -55.43,7.81 -66.31,18.54 -125.68,52.09 -183.4,88.39 -104.64,65.72 -10.98,3.89 -115.51,69.84 -6.09,3.87 -15.38,9.8 -20.05,7.72 -40.78,-18.1 -80.89,-37.8 -122.24,-57.5l32.21 -20.23c4.18,-2.63 5.43,-8.13 2.79,-12.29l-16.47 -25.96c-0.68,-1.08 -1.39,-2.2 -2.13,-3.35l-18.5 -29.15c-2.64,-4.16 -8.17,-5.41 -12.35,-2.78l-68.4 42.96c-5.69,2.67 -13.87,4.05 -18.82,1.86 -38.16,-17.17 -75.74,-35.53 -116.98,-55.2 -0.05,-0.7 -0.06,-0.86 -0.11,-1.56l34.51 -21.67c4.18,-2.63 5.43,-8.13 2.8,-12.29l-36.12 -56.92c-2.64,-4.16 -8.17,-5.41 -12.35,-2.78l-13.02 8.17c-1.47,0.74 -2.92,1.72 -4.35,2.74l-14.44 9.07c-4.96,3 -9.9,6.02 -14.7,9.23l-25.14 15.79c-10.52,3.44 -21.13,1.5 -34.02,-4.82 -111.7,-54.63 -224.29,-107.53 -336.32,-161.5 -12.1,-5.83 -20.91,-5.31 -32.26,2.12 -13.85,9 -27.7,17.94 -41.62,26.78 64.48,57.93 134.97,120.65 155.2,139.85 119.85,113.73 239.81,227.39 359.63,341.23 19.84,18.81 39.3,38.1 59.83,58.15 -4.83,3.67 -7.42,5.83 -10.21,7.74 -94.52,63.44 -188.81,127.14 -283.83,189.87 -7.19,4.71 -19.76,5.38 -28.59,3.16 -84.24,-21.39 -168.19,-43.89 -252.3,-65.85 -6.52,-1.7 -15.17,-4.83 -19.94,-2.22 -20.74,11.55 -40.47,24.93 -64.82,40.37 69.75,55.41 135.74,107.93 202.78,161.25 -15.81,19.71 -29.81,36.04 -42.37,53.41 -3.1,4.31 -5.17,12.19 -3.93,17.02 3.85,3.19 11.89,4.72 17.13,3.79 21.16,-3.8 41.99,-9.36 66.68,-15.08 19.56,83.15 38.82,165 59.1,251.49 24.49,-15.23 45.11,-27.2 64.51,-40.86 4.41,-3.17 5.3,-12.28 6.56,-18.87 16.25,-84.99 31.94,-170.07 48.77,-254.93 1.78,-8.89 7.79,-19.89 15.15,-24.32 97.78,-58.37 196.14,-115.67 294.36,-173.27 2.93,-1.7 6,-3.08 11.41,-5.84 9.36,27.06 18.5,52.83 27.04,78.75 51.77,156.58 103.31,313.21 154.96,469.77 8.72,26.43 35.31,116.72 60.15,199.55 14,-8.69 28.07,-17.28 42.2,-25.87 11.62,-7 15.88,-14.69 15.8,-28.06z"/>
   </g>
   <g>
    <g>
     <path class="fil0" d="M10846.89 10499.65c-383.51,0 -702.28,-127.59 -956.3,-382.76 -251.61,-252.72 -377.39,-567.42 -377.39,-944.14 0,-379.11 125.78,-693.8 377.39,-944.14 254.02,-255.17 572.79,-382.76 956.3,-382.76 232.04,0 446.38,54.11 643.03,162.22 196.6,108.16 349.91,254.6 459.83,439.26l-436.02 251.53c-63.55,-114.19 -153.89,-203.51 -271.13,-267.93 -117.25,-64.36 -249.15,-96.6 -395.71,-96.6 -249.15,0 -450.67,77.81 -604.56,233.3 -151.48,158 -227.17,359.69 -227.17,605.13 0,243.05 75.69,443.54 227.17,601.48 153.89,155.55 355.41,233.3 604.56,233.3 146.56,0 279.04,-32.18 397.54,-96.6 118.45,-64.36 208.22,-152.47 269.3,-264.29l436.02 251.53c-109.92,184.72 -263.23,331.16 -459.83,439.27 -196.65,108.16 -411,162.21 -643.03,162.21z"/>
     <path class="fil0" d="M13235.86 8476.48l-351.74 1042.57 703.49 0 -351.74 -1042.57zm1212.78 1972.13l-549.6 0 -153.89 -459.31 -1022.26 0 -153.89 459.31 -545.93 0 897.68 -2551.73 626.54 0 901.34 2551.73z"/>
     <polygon class="fil0" points="16181.7,9453.44 16181.7,7896.88 16687.33,7896.88 16687.33,10448.62 16302.61,10448.62 15203.42,8888.41 15203.42,10448.62 14697.79,10448.62 14697.79,7896.88 15082.51,7896.88 "/>
     <path class="fil0" d="M18149.22 8476.48l-351.74 1042.57 703.48 0 -351.74 -1042.57zm1212.78 1972.13l-549.6 0 -153.89 -459.31 -1022.25 0 -153.89 459.31 -545.94 0 897.68 -2551.73 626.54 0 901.34 2551.73z"/>
     <path class="fil0" d="M20116.79 9967.43l512.96 0c222.24,0 403.04,-72.91 542.27,-218.72 139.23,-150.66 208.85,-342.67 208.85,-575.97 0,-235.69 -69.61,-426.5 -208.85,-572.31 -139.23,-148.21 -320.03,-222.36 -542.27,-222.36l-512.96 0 0 1589.36zm-505.63 -2070.56l1018.59 0c351.74,0 644.86,122.75 879.36,368.19 236.9,243.04 355.41,545.6 355.41,907.68 0,362.15 -118.51,664.7 -355.41,907.69 -234.5,245.49 -527.61,368.18 -879.36,368.18l-1018.59 0 0 -2551.74z"/>
     <path class="fil0" d="M23117.6 8476.48l-351.74 1042.57 703.48 0 -351.74 -1042.57zm1212.78 1972.13l-549.6 0 -153.89 -459.31 -1022.25 0 -153.88 459.31 -545.94 0 897.68 -2551.73 626.54 0 901.34 2551.73z"/>
    </g>
    <g>
     <polygon class="fil1" points="26755.94,10448.61 26129.4,10448.61 25268.36,7896.88 25817.96,7896.88 26444.5,9858.08 27067.38,7896.88 27620.64,7896.88 "/>
     <polygon class="fil1" points="27866.09,7896.88 28371.72,7896.88 28371.72,10448.61 27866.09,10448.61 "/>
     <path class="fil1" d="M29683.44 10499.65c-251.61,0 -464.12,-55.87 -637.54,-167.68 -173.46,-111.76 -296.78,-266.12 -370.06,-462.96l432.36 -251.52c100.12,260.07 296.78,390.04 589.9,390.04 136.77,0 239.36,-24.26 307.78,-72.91 68.35,-48.58 102.59,-114.2 102.59,-196.85 0,-89.88 -40.31,-159.14 -120.91,-207.78 -80.62,-51.04 -224.77,-105.72 -432.36,-164.04 -224.76,-68.02 -401.84,-147.02 -531.28,-236.94 -161.21,-119.05 -241.82,-294.03 -241.82,-524.94 0,-233.3 81.81,-416.76 245.49,-550.44 163.62,-138.53 362.74,-207.79 597.23,-207.79 205.19,0 387.13,49.84 545.94,149.47 158.75,99.67 282.12,240.59 370.06,422.86l-425.02 244.23c-102.6,-218.72 -266.28,-328.08 -490.98,-328.08 -102.59,0 -184.45,23.69 -245.49,71.09 -61.09,47.38 -91.6,108.78 -91.6,184.08 0,80.2 32.98,145.81 98.93,196.85 73.28,51.04 202.72,104.52 388.38,160.41l175.88 58.31c31.7,9.74 86.66,30.42 164.88,61.97 73.28,26.78 126.97,52.29 161.21,76.56 119.66,72.91 200.26,148.25 241.83,226 63.48,102.08 95.26,222.36 95.26,360.89 0,235.74 -86.74,422.85 -260.14,561.38 -173.47,138.52 -396.97,207.78 -670.52,207.78z"/>
     <path class="fil1" d="M31889.19 8476.48l-351.74 1042.57 703.48 0 -351.74 -1042.57zm1212.78 1972.13l-549.6 0 -153.89 -459.31 -1022.25 0 -153.88 459.31 -545.94 0 897.68 -2551.73 626.54 0 901.34 2551.73z"/>
    </g>
   </g>
  </g>
 </g>
</svg>
